# xmcd
#
# Track frame offsets: 
#        150
#        23613
#        41347
#        60065
#        79309
#        96111
#        113218
#        128646
#        146342
#        163501
#        177755
#        198987
#        216307
#        233345
#        250830
#        271489
#        285161
#
# Disc length: 4108 seconds
#
# Revision: 0
# Processed by: cddbd v1.5.2PL0 Copyright (c) Steve Scherf et al.
# Submitted via: ExactAudioCopy v1.0b3
#
DISCID=d4100a11
DTITLE=邓紫棋 - 巅峰新天后 A
DYEAR=2014
DGENRE=Pop
TTITLE0=我不是真正的快乐
TTITLE1=如果没有你
TTITLE2=龙卷风
TTITLE3=Falling
TTITLE4=Lady Marmalade
TTITLE5=回忆的沙漏
TTITLE6=The Voice Within
TTITLE7=潜意式的残酷
TTITLE8=奇迹
TTITLE9=下一秒
TTITLE10=寂寞星球的玫瑰
TTITLE11=Someday I'll FLY
TTITLE12=Good To Be Bad
TTITLE13=Where Did U Go
TTITLE14=After Tonight
TTITLE15=等一个他
TTITLE16=不存在的存在
EXTD=
EXTT0=
EXTT1=
EXTT2=
EXTT3=
EXTT4=
EXTT5=
EXTT6=
EXTT7=
EXTT8=
EXTT9=
EXTT10=
EXTT11=
EXTT12=
EXTT13=
EXTT14=
EXTT15=
EXTT16=
PLAYORDER=
